{"title":"Dexter S0405 -Dirty Harry-[Nugmonster]","uid":5140440,"size":576691132,"categoryP":"video","categoryS":"hd___tv_shows","magnet":"?xt=urn:btih:a024d54594e56d9837ac4d91888a543eda92fd77&amp;dn=Dexter+S0405+-Dirty+Harry-%5BNugmonster%5D&amp;tr=udp%3A%2F%2Ftracker.openbittorrent.com%3A80&amp;tr=udp%3A%2F%2Fopen.demonii.com%3A1337&amp;tr=udp%3A%2F%2Ftracker.coppersurfer.tk%3A6969&amp;tr=udp%3A%2F%2Fexodus.desync.com%3A6969","seeders":0,"leechers":1,"uploader":"Nugmonster","files":-1,"time":1256863599,"description":"Format                           : AVI\nFormat/Info                      : Audio Video Interleave\nFile size                        : 550 MiB\nDuration                         : 49mn 17s\nOverall bit rate                 : 1 560 Kbps\nWriting application              : transcode-1.0.4\n\nVideo\nID                               : 0\nFormat                           : MPEG-4 Visual\nFormat profile                   : AdvancedSimple@L5\nFormat settings, BVOP            : Yes\nFormat settings, QPel            : No\nFormat settings, GMC             : No warppoints\nFormat settings, Matrix          : Default (H.263)\nCodec ID                         : XVID\nCodec ID/Hint                    : XviD\nDuration                         : 49mn 17s\nBit rate                         : 1 397 Kbps\nWidth                            : 624 pixels\nHeight                           : 352 pixels\nDisplay aspect ratio             : 16:9\nFrame rate                       : 23.976 fps\nResolution                       : 24 bits\nColorimetry                      : 4:2:0\nScan type                        : Progressive\nBits/(Pixel*Frame)               : 0.265\nStream size                      : 492 MiB (90%)\nWriting library                  : XviD 1.2.1 (UTC 2008-12-04)\n\nAudio\nID                               : 1\nFormat                           : MPEG Audio\nFormat version                   : Version 1\nFormat profile                   : Layer 3\nCodec ID                         : 55\nCodec ID/Hint                    : MP3\nDuration                         : 49mn 17s\nBit rate mode                    : Variable\nBit rate                         : 128 Kbps\nChannel(s)                       : 2 channels\nSampling rate                    : 48.0 KHz\nResolution                       : 16 bits\nStream size                      : 53.0 MiB (10%)\nAlignment                        : Aligned on interleaves\nInterleave, duration             : 24 ms (0.58 video frame)\n\n\n**PS If you don't like my uploads, don't leave a comment just call 1-800-EAT-SHIT and a live operator will handle your call as soon as possible. Thank you for keeping your ignorance to yourself!","torrent":{"xt":"urn:btih:a024d54594e56d9837ac4d91888a543eda92fd77","amp;dn":"Dexter+S0405+-Dirty+Harry-%5BNugmonster%5D","amp;tr":["udp%3A%2F%2Ftracker.openbittorrent.com%3A80","udp%3A%2F%2Fopen.demonii.com%3A1337","udp%3A%2F%2Ftracker.coppersurfer.tk%3A6969","udp%3A%2F%2Fexodus.desync.com%3A6969"],"infoHash":"a024d54594e56d9837ac4d91888a543eda92fd77","infoHashBuffer":{"type":"Buffer","data":[160,36,213,69,148,229,109,152,55,172,77,145,136,138,84,62,218,146,253,119]},"announce":[],"urlList":[]}}